<svg width="33" height="50" viewBox="0 0 33 50" fill="none" xmlns="http://www.w3.org/2000/svg">
<g clip-path="url(#clip0)">
<rect width="1440" height="2700" transform="translate(-554 -762)" fill="white"/>
<g filter="url(#filter0_d)">
<path fill-rule="evenodd" clip-rule="evenodd" d="M17.3113 15.508C18.0047 16.439 19.2427 17.1217 21.2946 16.8469C24.8975 16.3644 27.6855 17.4456 29.3582 19.5167C30.9898 21.5368 31.3643 24.2642 30.6618 26.7102C29.9519 29.1819 28.1264 31.4474 25.2582 32.583C22.3942 33.717 18.6671 33.6599 14.216 31.8717C10.3494 30.3183 8.12582 30.5701 6.92916 31.2703C5.76165 31.9534 5.07789 33.3612 5.00606 35.3528C4.93489 37.3258 5.49503 39.5733 6.45802 41.3899C7.45483 43.2703 8.67633 44.3246 9.69565 44.5294L9.10483 47.4706C6.76488 47.0006 4.95819 44.9658 3.80743 42.795C2.62285 40.5604 1.91602 37.7947 2.00801 35.2447C2.09932 32.7132 3.00882 30.0882 5.41418 28.6809C7.79039 27.2906 11.1193 27.3945 15.3343 29.0879C19.2814 30.6736 22.189 30.5716 24.1539 29.7937C26.1147 29.0173 27.3125 27.5041 27.7784 25.882C28.2516 24.2343 27.9543 22.5531 27.0244 21.4017C26.1357 20.3013 24.4726 19.4481 21.6928 19.8203C18.7058 20.2203 16.3325 19.216 14.9054 17.3002C13.5292 15.4527 13.1937 12.9741 13.7342 10.6548C14.28 8.31217 15.7384 6.01641 18.1216 4.4575C20.5164 2.89101 23.7478 2.12943 27.744 2.67673L27.3369 5.64898C23.9426 5.1841 21.4632 5.85647 19.7639 6.96808C18.0529 8.08727 17.0338 9.71377 16.6559 11.3356C16.2725 12.9807 16.5669 14.5087 17.3113 15.508Z" fill="black" stroke="black" stroke-width="3"/>
<path fill-rule="evenodd" clip-rule="evenodd" d="M27.5133 4.36101C27.0533 4.298 26.6067 4.2542 26.1736 4.22836L26.1974 3.82907C26.641 3.85553 27.0978 3.90036 27.5676 3.96471L27.5133 4.36101ZM23.487 4.30828C22.5394 4.42942 21.6762 4.6483 20.896 4.9451L20.7538 4.57124C21.5647 4.26275 22.4587 4.03648 23.4363 3.91151L23.487 4.30828ZM18.5651 6.22218C17.8251 6.77927 17.2089 7.42361 16.7144 8.1187L16.3885 7.88681C16.9064 7.15888 17.5511 6.4848 18.3245 5.90261L18.5651 6.22218ZM15.5383 10.492C15.2674 11.3689 15.1549 12.2601 15.1966 13.1098L14.7971 13.1294C14.753 12.2313 14.8721 11.2936 15.1561 10.374L15.5383 10.492ZM15.8617 15.6393C16.2706 16.4114 16.8632 17.0592 17.6351 17.5108L17.4331 17.856C16.5921 17.364 15.9492 16.6592 15.5082 15.8265L15.8617 15.6393ZM21.4671 18.1354C22.0153 18.062 22.5366 18.0289 23.031 18.0327L23.0279 18.4327C22.5535 18.429 22.051 18.4607 21.5202 18.5318C21.0279 18.5978 20.5606 18.6198 20.1189 18.6016L20.1354 18.202C20.5522 18.2191 20.9962 18.1984 21.4671 18.1354ZM26.0887 18.633C27.1283 19.0834 27.9437 19.7615 28.5346 20.5791L28.2104 20.8134C27.6614 20.0538 26.9029 19.4217 25.9297 19.0001L26.0887 18.633ZM29.6511 23.5C29.7732 24.5216 29.6663 25.5879 29.334 26.6067L28.9537 26.4827C29.2685 25.5175 29.3689 24.5097 29.2539 23.5475L29.6511 23.5ZM10.6936 29.5255C9.6425 29.376 8.73199 29.3912 7.94909 29.5384L7.8752 29.1452C8.70845 28.9886 9.66369 28.975 10.7499 29.1295L10.6936 29.5255ZM27.7737 29.3109C27.1083 30.0526 26.2724 30.6904 25.2687 31.1628L25.0984 30.8008C26.0534 30.3514 26.846 29.746 27.4759 29.0438L27.7737 29.3109ZM14.7006 30.6654C14.2456 30.4826 13.8073 30.3217 13.3851 30.1815L13.5111 29.8019C13.9416 29.9448 14.3876 30.1086 14.8497 30.2942C15.3381 30.4904 15.8142 30.6632 16.2779 30.8138L16.1543 31.1943C15.6817 31.0407 15.1971 30.8648 14.7006 30.6654ZM5.53944 30.6826C4.87649 31.2772 4.40685 32.0545 4.10782 32.95L3.72841 32.8233C4.04526 31.8745 4.5488 31.0338 5.27236 30.3848L5.53944 30.6826ZM22.2685 31.9792C21.3197 32.08 20.2835 32.0628 19.161 31.9044L19.2169 31.5084C20.3096 31.6625 21.3128 31.6785 22.2263 31.5814L22.2685 31.9792ZM3.70004 35.6573C3.69718 36.555 3.8044 37.4873 4.00519 38.4081L3.61437 38.4934C3.40806 37.5472 3.29708 36.5858 3.30005 35.6561L3.70004 35.6573ZM4.8538 41.0486C5.23517 41.9309 5.69747 42.748 6.22022 43.4495L5.89949 43.6885C5.35588 42.959 4.87868 42.1143 4.48664 41.2074L4.8538 41.0486ZM8.19928 45.3144C8.60168 45.5524 9.01675 45.719 9.43962 45.8039L9.36084 46.1961C8.88822 46.1012 8.43131 45.9163 7.99569 45.6588L8.19928 45.3144Z" fill="white" stroke="black" stroke-width="0.4" stroke-dasharray="3 3"/>
<path d="M13 46.5C13 48.1569 11.6569 49.5 10 49.5C8.34315 49.5 7 48.1569 7 46.5C7 44.8431 8.34315 43.5 10 43.5C11.6569 43.5 13 44.8431 13 46.5Z" fill="#C4C4C4" stroke="black"/>
<path d="M11 46.5C11 47.0523 10.5523 47.5 10 47.5C9.44772 47.5 9 47.0523 9 46.5C9 45.9477 9.44772 45.5 10 45.5C10.5523 45.5 11 45.9477 11 46.5Z" fill="white" stroke="black"/>
<path d="M32 3.5C32 5.15685 30.6569 6.5 29 6.5C27.3431 6.5 26 5.15685 26 3.5C26 1.84315 27.3431 0.5 29 0.5C30.6569 0.5 32 1.84315 32 3.5Z" fill="#C4C4C4" stroke="black"/>
<path d="M30 3.5C30 4.05228 29.5523 4.5 29 4.5C28.4477 4.5 28 4.05228 28 3.5C28 2.94772 28.4477 2.5 29 2.5C29.5523 2.5 30 2.94772 30 3.5Z" fill="white" stroke="black"/>
</g>
</g>
<defs>
<filter id="filter0_d" x="-3.5" y="0" width="40" height="58" filterUnits="userSpaceOnUse" color-interpolation-filters="sRGB">
<feFlood flood-opacity="0" result="BackgroundImageFix"/>
<feColorMatrix in="SourceAlpha" type="matrix" values="0 0 0 0 0 0 0 0 0 0 0 0 0 0 0 0 0 0 127 0"/>
<feOffset dy="4"/>
<feGaussianBlur stdDeviation="2"/>
<feColorMatrix type="matrix" values="0 0 0 0 0 0 0 0 0 0 0 0 0 0 0 0 0 0 0.25 0"/>
<feBlend mode="normal" in2="BackgroundImageFix" result="effect1_dropShadow"/>
<feBlend mode="normal" in="SourceGraphic" in2="effect1_dropShadow" result="shape"/>
</filter>
<clipPath id="clip0">
<rect width="1440" height="2700" fill="white" transform="translate(-554 -762)"/>
</clipPath>
</defs>
</svg>
