<svg width="46" height="34" viewBox="0 0 46 34" fill="none" xmlns="http://www.w3.org/2000/svg">
<g clip-path="url(#clip0)">
<rect width="1440" height="2700" transform="translate(-321 -767)" fill="white"/>
<path d="M33.5254 21.1048C33.5254 26.8876 28.813 31.5754 23 31.5754C17.187 31.5754 12.4746 26.8876 12.4746 21.1048C12.4746 15.322 17.187 10.6341 23 10.6341C28.813 10.6341 33.5254 15.322 33.5254 21.1048Z" fill="#C4C4C4"/>
<path d="M20.6744 22.465C20.0218 21.0604 20.627 19.397 22.0195 18.7568C23.4089 18.1179 25.0668 18.7408 25.7194 20.1454L39.4803 27.8174L24.223 23.9233C22.8652 24.4464 21.3029 23.8179 20.6744 22.465Z" fill="#030104"/>
<g filter="url(#filter0_d)">
<path d="M6.73655 6.73144C11.0808 2.39058 16.8566 0 23 0C29.1435 0 34.9194 2.39058 39.2636 6.73144C43.6077 11.0723 46 16.8437 46 22.9826C46 26.9463 45.0006 30.7557 43.1243 34.1266H38.8255L35.6813 32.3126L37.0699 29.9092L41.1128 32.2418C42.5411 29.463 43.348 26.3153 43.348 22.9826C43.348 22.3928 43.3212 21.8091 43.2717 21.2318L38.4511 22.0811L37.9689 19.3482L42.8462 18.4889C41.9747 14.6438 40.0096 11.2089 37.296 8.52879L33.9915 12.4642L31.864 10.6804L35.1936 6.71536C32.1404 4.42444 28.4238 2.97148 24.3885 2.69855V7.96182H21.6115V2.69855C17.5762 2.9717 13.8596 4.42454 10.8063 6.71547L14.136 10.6804L12.0086 12.4642L8.70396 8.52869C5.99049 11.2089 4.02544 14.6438 3.1539 18.4888L8.03114 19.3483L7.54877 22.081L2.72849 21.2316C2.67905 21.809 2.65224 22.3925 2.65224 22.9823C2.65224 26.3153 3.45879 29.4631 4.88732 32.2417L8.93034 29.9093L10.3188 32.3126L7.17472 34.1264H2.87572C0.999256 30.7555 0 26.9461 0 22.9823C-0.000106812 16.8436 2.3925 11.0721 6.73655 6.73144Z" fill="#030104"/>
</g>
</g>
<defs>
<filter id="filter0_d" x="-4" y="0" width="54" height="42.1266" filterUnits="userSpaceOnUse" color-interpolation-filters="sRGB">
<feFlood flood-opacity="0" result="BackgroundImageFix"/>
<feColorMatrix in="SourceAlpha" type="matrix" values="0 0 0 0 0 0 0 0 0 0 0 0 0 0 0 0 0 0 127 0"/>
<feOffset dy="4"/>
<feGaussianBlur stdDeviation="2"/>
<feColorMatrix type="matrix" values="0 0 0 0 0 0 0 0 0 0 0 0 0 0 0 0 0 0 0.25 0"/>
<feBlend mode="normal" in2="BackgroundImageFix" result="effect1_dropShadow"/>
<feBlend mode="normal" in="SourceGraphic" in2="effect1_dropShadow" result="shape"/>
</filter>
<clipPath id="clip0">
<rect width="1440" height="2700" fill="white" transform="translate(-321 -767)"/>
</clipPath>
</defs>
</svg>
